HIERARCHY
ROOT Hips
{
 OFFSET 0.000000 0.000000 0.000000
 CHANNELS 6 Xposition Yposition Zposition Yrotation Xrotation Zrotation
 JOINT Chest
 {
  OFFSET 0.000000 9.585900 0.002600
  CHANNELS 3 Yrotation Xrotation Zrotation
  JOINT Chest2
  {
   OFFSET 0.000000 9.601200 -0.005300
   CHANNELS 3 Yrotation Xrotation Zrotation
   JOINT Chest3
   {
    OFFSET 0.000000 9.561800 0.000000
    CHANNELS 3 Yrotation Xrotation Zrotation
    JOINT Chest4
    {
     OFFSET 0.000000 9.552100 0.000000
     CHANNELS 3 Yrotation Xrotation Zrotation
     JOINT Neck
     {
      OFFSET 0.000000 14.453000 0.000000
      CHANNELS 3 Yrotation Xrotation Zrotation
      JOINT Head
      {
       OFFSET 0.000000 8.936500 -0.011300
       CHANNELS 3 Yrotation Xrotation Zrotation
       End Site
       {
        OFFSET 0.000000 17.073600 -0.006000
       }
      }
     }
     JOINT RightCollar
     {
      OFFSET -2.921100 9.558500 0.000000
      CHANNELS 3 Yrotation Xrotation Zrotation
      JOINT RightShoulder
      {
       OFFSET -13.519700 0.000000 0.000000
       CHANNELS 3 Yrotation Xrotation Zrotation
       JOINT RightElbow
       {
        OFFSET 0.000000 -29.696600 0.000000
        CHANNELS 3 Yrotation Xrotation Zrotation
        JOINT RightWrist
        {
         OFFSET 0.000000 -24.004700 0.000000
         CHANNELS 3 Yrotation Xrotation Zrotation
         End Site
         {
          OFFSET 0.000000 -17.728500 0.000000
         }
        }
       }
      }
     }
     JOINT LeftCollar
     {
      OFFSET 2.921100 9.558500 0.000000
      CHANNELS 3 Yrotation Xrotation Zrotation
      JOINT LeftShoulder
      {
       OFFSET 13.519700 0.000000 0.000000
       CHANNELS 3 Yrotation Xrotation Zrotation
       JOINT LeftElbow
       {
        OFFSET 0.000000 -29.696600 0.000000
        CHANNELS 3 Yrotation Xrotation Zrotation
        JOINT LeftWrist
        {
         OFFSET 0.000000 -24.004700 0.000000
         CHANNELS 3 Yrotation Xrotation Zrotation
         End Site
         {
          OFFSET 0.000000 -17.728500 0.000000
         }
        }
       }
      }
     }
    }
   }
  }
 }
 JOINT RightHip
 {
  OFFSET -7.771700 -0.012900 -0.001300
  CHANNELS 3 Yrotation Xrotation Zrotation
  JOINT RightKnee
  {
   OFFSET 0.000000 -40.869800 0.001200
   CHANNELS 3 Yrotation Xrotation Zrotation
   JOINT RightAnkle
   {
    OFFSET 0.000000 -39.717900 0.002100
    CHANNELS 3 Yrotation Xrotation Zrotation
    JOINT RightToe
    {
     OFFSET 0.000000 -4.965400 11.033500
     CHANNELS 3 Yrotation Xrotation Zrotation
     End Site
     {
      OFFSET 0.000000 -1.423100 5.872300
     }
    }
   }
  }
 }
 JOINT LeftHip
 {
  OFFSET 7.771700 -0.012900 -0.001300
  CHANNELS 3 Yrotation Xrotation Zrotation
  JOINT LeftKnee
  {
   OFFSET 0.000000 -40.869800 0.001200
   CHANNELS 3 Yrotation Xrotation Zrotation
   JOINT LeftAnkle
   {
    OFFSET 0.000000 -39.717900 0.002100
    CHANNELS 3 Yrotation Xrotation Zrotation
    JOINT LeftToe
    {
     OFFSET 0.000000 -4.965400 11.033500
     CHANNELS 3 Yrotation Xrotation Zrotation
     End Site
     {
      OFFSET 0.000000 -1.423100 5.872300
     }
    }
   }
  }
 }
}
MOTION
Frames: 11
Frame Time: 0.008333
0.000000 85.388000 0.000000 0.000000 -5.767877 0.000000 0.000000 11.653817 0.000000 0.000000 -5.885947 0.000000 0.000000 -0.000000 0.000000 0.000000 -0.000000 0.000000 0.000000 12.528835 0.000000 0.000000 0.711642 0.000000 0.000000 -0.000000 0.000000 0.000000 0.000000 -90.000000 0.000000 -2.309062 0.000000 0.000000 2.309062 0.000000 0.000000 -0.000000 0.000000 0.000000 -0.000000 90.000000 0.000000 -2.309062 0.000000 0.000000 2.309062 0.000000 0.000000 8.520406 0.000000 0.000000 1.905762 0.000000 -0.000000 -4.658285 0.000000 0.000000 -0.000000 0.000000 0.000000 8.520406 0.000000 0.000000 1.905762 0.000000 -0.000000 -4.658285 0.000000 0.000000 -0.000000 0.000000
-42.841118 51.601147 20.470138 177.582752 -18.454380 0.089998 -1.841159 12.609596 0.187991 -0.138752 0.973954 0.066570 -0.235687 1.659705 0.112193 -1.580327 11.474278 0.642299 -3.891164 16.136514 -1.109644 -3.866932 -8.715272 -0.297007 -0.859728 14.829080 6.588324 33.357830 -2.742745 -28.510440 124.940308 -63.767981 -157.001780 0.853292 1.317823 -16.885554 2.257199 13.581681 -10.789036 -26.529609 6.388016 31.664215 -121.045334 -68.577966 162.727128 15.952536 1.716419 9.164527 -14.277006 -64.204480 7.228618 -57.930351 82.263037 -66.285020 -2.881658 -5.287186 7.787225 0.199771 -0.606090 0.094482 8.115436 -62.445689 -6.468156 54.074971 85.619427 60.560965 -0.596964 -13.736612 -1.014736 0.148790 0.387833 0.080107
-42.842092 51.601661 20.468237 177.591369 -18.437744 0.082472 -1.843456 12.598856 0.197364 -0.138677 0.972135 0.067263 -0.235629 1.656867 0.113303 -1.581082 11.464726 0.650821 -3.944110 16.147953 -1.111440 -4.026104 -8.684635 -0.240027 -0.824527 14.794371 6.602358 33.376863 -2.707677 -28.509087 124.692493 -63.938297 -156.734928 0.811944 1.269896 -16.771272 2.235882 13.564138 -10.811247 -26.656150 6.350793 31.650713 -123.447731 -69.195603 164.749209 16.010252 2.075293 9.432305 -14.296275 -64.217073 7.245890 -57.949380 82.256262 -66.304557 -2.880626 -5.277500 7.783054 0.201095 -0.609590 0.095922 8.118437 -62.463068 -6.467468 54.048239 85.625265 60.531363 -0.601874 -13.739847 -1.008864 0.151737 0.390621 0.081845
-42.842367 51.602679 20.464685 177.598918 -18.426904 0.066153 -1.841790 12.594857 0.215561 -0.138599 0.970657 0.067952 -0.235449 1.654255 0.114427 -1.580713 11.456323 0.659542 -4.070103 16.171258 -1.098961 -4.119967 -8.662294 -0.215492 -0.803070 14.766293 6.610619 33.433423 -2.697211 -28.508158 124.282451 -64.109491 -156.333832 0.755277 1.162305 -16.571988 2.197905 13.498232 -10.848616 -26.775780 6.357530 31.631728 -126.226607 -69.829084 167.135423 16.054417 2.399372 9.737467 -14.308392 -64.221022 7.265891 -57.982117 82.244853 -66.330636 -2.883724 -5.259748 7.768287 0.208153 -0.624962 0.114417 8.105324 -62.476731 -6.447828 54.074834 85.632061 60.556102 -0.603609 -13.745431 -1.001605 0.152170 0.392128 0.079220
-42.844839 51.603370 20.461858 177.603571 -18.407185 0.057521 -1.835743 12.581492 0.225420 -0.138261 0.969176 0.068451 -0.234878 1.651867 0.115263 -1.577056 11.448728 0.666092 -4.204123 16.198016 -1.084478 -4.216106 -8.637023 -0.190247 -0.807130 14.759936 6.612392 33.537128 -2.722680 -28.512624 123.691647 -64.278437 -155.775357 0.673015 0.986272 -16.250284 2.155470 13.430698 -10.880107 -26.921263 6.365354 31.610578 -129.393345 -70.460798 169.906911 16.084154 2.704655 10.036461 -14.326704 -64.235971 7.286357 -57.999833 82.237391 -66.351557 -2.875679 -5.246883 7.771906 0.205474 -0.635813 0.115783 8.131677 -62.499579 -6.461403 54.082190 85.642311 60.568242 -0.614257 -13.743012 -0.990908 0.156483 0.385945 0.081797
-42.847673 51.604046 20.458862 177.601712 -18.385719 0.046720 -1.823493 12.565767 0.238980 -0.137911 0.967580 0.068830 -0.234412 1.649358 0.115968 -1.574386 11.440338 0.672433 -4.265716 16.213918 -1.082796 -4.387210 -8.591836 -0.137071 -0.785985 14.724489 6.633440 33.594700 -2.715807 -28.512174 123.031394 -64.424874 -155.138924 0.573314 0.749302 -15.801169 2.119961 13.380503 -10.904854 -27.103188 6.359342 31.586334 -132.987564 -71.064017 173.102165 16.097467 2.999562 10.290567 -14.312734 -64.249433 7.287907 -58.004715 82.223775 -66.345265 -2.874394 -5.239150 7.773687 0.206716 -0.623616 0.109474 8.134928 -62.522829 -6.452251 54.134612 85.646131 60.616728 -0.616726 -13.749374 -0.979157 0.153023 0.387339 0.078388
-42.851935 51.605105 20.454416 177.607687 -18.371139 0.036252 -1.821275 12.558692 0.245300 -0.137769 0.965755 0.069307 -0.234002 1.646172 0.116666 -1.572785 11.430281 0.678365 -4.323447 16.230996 -1.079019 -4.556860 -8.543614 -0.086175 -0.734872 14.664459 6.667798 33.626477 -2.687941 -28.504759 122.283021 -64.557016 -154.423028 0.466271 0.486081 -15.264992 2.091193 13.334232 -10.922814 -27.309719 6.351432 31.557593 -137.070605 -71.610874 176.772719 16.108056 3.288459 10.488657 -14.313669 -64.258240 7.292036 -58.029546 82.215135 -66.369529 -2.864346 -5.226405 7.777820 0.201993 -0.627352 0.109393 8.132895 -62.538843 -6.448722 54.176369 85.651226 60.657242 -0.620459 -13.752652 -0.969624 0.154851 0.385985 0.076157
-42.857811 51.606719 20.447949 177.620050 -18.367680 0.028758 -1.825258 12.557319 0.241804 -0.130446 0.964500 0.064592 -0.232513 1.639831 0.118480 -1.573972 11.422064 0.691282 -4.433587 16.262533 -1.069437 -4.672945 -8.505003 -0.054371 -0.737496 14.669971 6.674362 33.707580 -2.712261 -28.516857 121.461048 -64.677475 -153.631054 0.346401 0.243040 -14.722504 2.062186 13.298491 -10.934430 -27.529097 6.339039 31.527929 -141.706785 -72.072952 -179.028746 16.129693 3.565784 10.636963 -14.301214 -64.255531 7.276737 -58.064414 82.211061 -66.410416 -2.851977 -5.224439 7.791824 0.187423 -0.625048 0.107010 8.125951 -62.541975 -6.451166 54.234880 85.653153 60.714497 -0.626752 -13.755021 -0.960093 0.160265 0.383125 0.073041
-42.861403 51.607292 20.444342 177.626928 -18.346274 0.004870 -1.817925 12.540027 0.258949 -0.136733 0.961332 0.070579 -0.232286 1.638810 0.118765 -1.556365 11.397728 0.696251 -4.615709 16.313409 -1.056351 -4.716847 -8.483027 -0.047918 -0.728961 14.662789 6.697958 33.718866 -2.694665 -28.522983 120.655053 -64.765237 -152.816766 0.219386 0.055153 -14.250229 2.027226 13.277059 -10.947202 -27.750446 6.328039 31.503216 -146.929569 -72.416757 -174.272338 16.167568 3.798376 10.719939 -14.326953 -64.265220 7.307340 -58.039616 82.209868 -66.378286 -2.856592 -5.220606 7.791674 0.185829 -0.618531 0.107266 8.087421 -62.567543 -6.414361 54.310170 85.655287 60.787008 -0.627938 -13.763969 -0.955142 0.160274 0.387721 0.072261
-42.864119 51.607946 20.440188 177.617083 -18.328642 -0.020927 -1.790545 12.527886 0.273487 -0.139926 0.957737 0.080399 -0.231010 1.634384 0.119689 -1.556344 11.392473 0.704469 -4.729825 16.332000 -1.047255 -4.803456 -8.452288 -0.023621 -0.673667 14.599372 6.751402 33.689338 -2.634787 -28.527790 119.821519 -64.844084 -151.960978 0.117536 -0.064891 -13.871228 2.004937 13.240817 -10.961317 -27.965979 6.325661 31.486901 -152.705213 -72.593932 -168.997145 16.218962 3.949047 10.723128 -14.366834 -64.271752 7.366431 -58.016695 82.214559 -66.351645 -2.866159 -5.216148 7.789028 0.186862 -0.614834 0.106833 8.063013 -62.591795 -6.368464 54.426249 85.669596 60.900414 -0.618645 -13.779078 -0.943748 0.153998 0.391621 0.069307
-42.869073 51.608368 20.436233 177.613487 -18.309906 -0.035693 -1.781210 12.509830 0.286166 -0.131828 0.951862 0.067167 -0.234605 1.633421 0.129425 -1.531765 11.350288 0.707997 -4.797237 16.382663 -1.037165 -4.941170 -8.422738 0.022542 -0.668473 14.605331 6.786581 33.726005 -2.619520 -28.547488 118.919407 -64.934803 -151.051092 0.065829 -0.126103 -13.553138 1.963377 13.244203 -10.964211 -28.171820 6.334005 31.477766 -158.867773 -72.550743 -163.376407 16.278961 3.998423 10.669319 -14.387886 -64.282216 7.396376 -57.988688 82.224329 -66.320901 -2.881691 -5.226787 7.784534 0.189637 -0.603469 0.113042 8.060445 -62.613349 -6.359214 54.506242 85.675545 60.985144 -0.615879 -13.785596 -0.939020 0.153696 0.391635 0.068638
